<?xml version="1.0" encoding="utf-8"?>
<!-- Generator: Adobe Illustrator 16.0.0, SVG Export Plug-In . SVG Version: 6.00 Build 0)  -->
<!DOCTYPE svg PUBLIC "-//W3C//DTD SVG 1.1//EN" "http://www.w3.org/Graphics/SVG/1.1/DTD/svg11.dtd">
<svg version="1.1" id="Layer_1" xmlns="http://www.w3.org/2000/svg" xmlns:xlink="http://www.w3.org/1999/xlink" x="0px" y="0px"
	 width="70px" height="70px" viewBox="0 0 70 70" enable-background="new 0 0 70 70" xml:space="preserve">
<path fill-rule="evenodd" clip-rule="evenodd" d="M48.205,32.51c0-0.019,0-0.036,0-0.053c0.306,0.076,0.368-0.104,0.368-0.356
	c0-0.049-0.03-0.277,0.025-0.277c-0.007,0,0.081-0.192,0.081-0.19c0-0.181,0.021-0.376,0.052-0.599
	c0.003-0.021,0.053,0.032,0.053-0.027c0-0.07,0-0.139,0-0.209c0-0.046,0.121-0.051,0-0.079c0.031-0.294,0.104-0.446,0.104-0.709
	c0-0.097,0.105-0.206,0.105-0.28c0-0.166,0.106-0.175,0.106-0.34c0-0.042,0.083-0.161,0.104-0.252c0.019,0,0.038,0,0.053,0
	c0.02-0.141,0.037-0.281,0.055-0.422c-0.107-0.021,0.065-0.356-0.055-0.369c0.086-0.327-0.062-0.314-0.367-0.298
	c-0.158,0.009-0.316,0.018-0.475,0.026c-0.291,0.016-0.04,0.031-0.264,0.088c-0.256,0.063-0.029,0.051-0.104,0.079
	c-0.053,0.013-0.225,0.108-0.211,0.104c-0.085,0.02-0.225,0.053-0.264,0.053c-0.012,0-0.211,0.084-0.211,0.08
	c0,0.108-0.79,0.049-0.79,0.158c0,0.033-0.169,0.078-0.222,0.078c-0.049,0-0.118,0.087-0.147,0.105
	c-0.036,0.024-0.118-0.022-0.157,0c-0.07,0.139-0.12,0.123-0.265,0.158c-0.112,0.23-0.04,0.011-0.157,0.105
	c-0.112,0.168-0.169,0.171-0.367,0.211c-0.072,0.139-0.12,0.121-0.265,0.158c-0.086,0.129-0.116,0.162-0.263,0.211
	c-0.071,0.122-0.141,0.246-0.212,0.367c-0.034,0-0.069,0-0.104,0c0,0.036,0,0.07,0,0.107c-0.047,0.021-0.055,0.012-0.093,0.043
	c-0.092,0.064-0.054,0.055-0.139,0.158c-0.012,0.015-0.11,0.113-0.113,0.119c-0.047,0.064,0.007,0.101-0.067,0.178
	c-0.075,0.074-0.057,0.115-0.105,0.191c-0.108,0.072-0.141,0.104-0.183,0.232c-0.034,0.102,0.001,0.209-0.091,0.236
	c0.017,0.053-0.009,0.131,0.008,0.184c-0.056,0.012-0.146,0.135-0.146,0.219c0.001,0.123-0.059,0.173-0.178,0.287
	c-0.171,0.165-0.457,1.127-0.569,1.336c0.121-0.643,0.461-1.941,0.577-2.584c0.078-0.434,0.222-0.729,0.241-1.188
	c0.008-0.174,0.238-0.519,0.192-0.608c-0.108-0.225-0.587-0.084-0.811-0.068c-0.021-0.131-0.189,0.025-0.211-0.105
	c-0.064-0.012-0.369,0.131-0.369,0.026c0-0.073-0.045-0.005-0.053,0.026c-0.053-0.018-0.104-0.035-0.158-0.053
	c-0.023,0.145-0.208,0-0.211,0c-0.066,0.002-0.142,0.053-0.278,0.053c-0.152,0-0.305,0.003-0.457,0c0.006,0-0.001-0.054-0.055-0.053
	c0,0.018,0,0.035,0,0.053c-0.148,0.01-0.296,0.02-0.444,0.029c-0.396,0.025-0.793,0.051-1.188,0.076
	c-0.016,0.055-0.058,0.211-0.13,0.211c-0.058,0-0.028,0.186-0.028,0.236c0,0.063-0.104,0.121-0.104,0.225
	c0,0.133-0.08,0.205,0,0.224c0.01,0.2-0.117-0.021,0,0.21c-0.019,0-0.036,0-0.054,0c0.002,0.094,0.086,0.103,0.054,0.212
	c0-0.026-0.054,0.067-0.054,0.117c0,0.101-0.105,0.063-0.105,0.198c0,0.096,0.022,0.094-0.052,0.105
	c-0.021,0.102,0.045,0.131,0,0.264c0.068,0.092,0.003,0.074,0,0.105c-0.015,0.189-0.052,0.209-0.052,0.389
	c0,0.062-0.153,0.5-0.211,0.507c0.018,0.053,0.035,0.105,0.053,0.158c-0.153,0.014-0.006,0.303-0.159,0.315
	c0.083,0.166,0.018,0.338-0.01,0.517c-0.014,0.091-0.028,0.183-0.043,0.274c-0.008,0.037-0.053-0.055-0.053,0.041
	c0,0.143-0.038,0.143-0.159,0.223c-0.016,0.127-0.002,0.324-0.104,0.368c0.019,0.104,0.036,0.21,0.054,0.315
	c-0.179,0.008,0.022,0.434,0,0.527c-0.098,0.029-0.076,0.479-0.054,0.526c-0.018,0-0.033,0-0.052,0
	c0.019,0.07,0.034,0.142,0.052,0.21c-0.018,0-0.033,0-0.052,0c0.019,0.09,0.034,0.178,0.052,0.266
	c-0.158-0.029-0.013,0.578-0.132,0.578c0.014,0-0.081,0.186-0.08,0.18c-0.021,0.146-0.115,0.506-0.13,0.506
	c-0.013,0-0.185,0.908-0.185,1.086c0,0.1-0.053,0.1-0.053,0.25c0,0.109-0.209,0.174-0.23,0.338
	c-0.025,0.191-0.052,0.385-0.079,0.578c-0.018,0.145-0.038,0.291-0.059,0.434c0.166,0.029,0.337,0.047,0.506,0.033
	c0.161-0.014,0.308-0.033,0.468-0.033c0.171,0,1.439-0.105,1.45,0c0.052-0.018,0.104-0.033,0.157-0.051
	c0.033,0.129,0.476-0.012,0.476,0.078c0,0.088,0.807,0.189,0.947,0.176c0.173-0.018,0.264-0.061,0.264-0.23c0-0.072,0-0.143,0-0.211
	c0-0.061,0.042,0.006,0.052-0.023c0.081-0.242,0.158-0.664,0.158-0.908c0-0.08,0.073-0.328,0.085-0.484
	c0.002-0.047-0.012-0.293,0.047-0.293c0.045,0,0.03-0.031,0.037-0.074c0.027-0.191,0.146-0.385,0.146-0.494
	c0-0.145,0.072-0.297,0.105-0.434c0.008-0.035,0.053,0.047,0.053-0.035c0-0.047-0.016-0.129,0-0.176
	c0.006-0.016,0.106-0.107,0.106-0.137c0-0.375,0.116-0.848,0.158-1.285c0.001-0.003,0.104-0.105,0.104-0.105
	c0.016-0.047,0-0.129,0-0.178c0-0.1,0.205-0.168,0.237-0.296c0.04-0.163,0.121-0.121,0.166-0.299
	c0.035-0.137,0.029-0.253,0.151-0.334c0.086-0.059,0.189-0.118,0.235-0.21c0.124-0.083,0.048,0.113,0.159-0.105
	c0.104-0.063,0.059,0.068,0.158-0.08c0.146-0.221,0.47-0.15,0.632-0.395c0.095-0.071,0.058,0.07,0.157-0.079
	c0.1-0.147,0.053-0.016,0.159-0.079c0.049-0.1,0.164-0.159,0.263-0.185c0.12-0.03,0.407-0.184,0.508-0.184
	c0.1,0,0.175-0.053,0.204-0.053c0.07,0,0.14,0,0.209,0c0.062,0,0.001-0.049,0.027-0.054c0.088-0.017,0.017,0.07,0.105,0.054
	c0.021-0.004-0.032-0.054,0.02-0.054c0.093,0,0.185,0,0.275,0c0.101,0,0.044-0.052,0.1-0.052c0.055,0,0.001,0.052,0.109,0.052
	c0.048,0,0.232-0.029,0.232,0.026c0,0.112,0.265-0.032,0.317-0.026c0.019,0.139,0.351,0.051,0.368,0.054
	c0.019,0.003-0.024,0.053,0.015,0.053c0.078,0,0.158,0,0.235,0c0.103,0,0.314,0.052,0.33-0.053
	C48.074,32.45,48.173,32.497,48.205,32.51z M37.933,38.673c-0.012,0.064,0.03,0.113-0.053,0.105
	C37.929,38.581,38.044,38.517,37.933,38.673z M38.144,37.935c-0.018,0.039,0.016,0.072-0.053,0.055
	c0.057-0.115,0.098-0.283,0.209-0.316C38.275,37.778,38.228,37.866,38.144,37.935z M40.197,32.035c0.1,0.024,0.14-0.103,0.224-0.173
	c0.056-0.049,0.121-0.082,0.159-0.15c0.075-0.133,0.18-0.119,0.276-0.241c0.046-0.06,0.04-0.173,0.12-0.173
	c0.164,0,0.062-0.021,0.155-0.119c0.036-0.021,0.077-0.034,0.119-0.039c0.02-0.073,0.057-0.137,0.108-0.191
	c0.062-0.068,0.173-0.229,0.261-0.229c0.025,0,0.341-0.345,0.412-0.423c0.215-0.233,0.453-0.449,0.664-0.682
	c0.134-0.148,0.281-0.365,0.504-0.424c0.028-0.011-0.027-0.059,0.052-0.053c-0.02-0.002,0.06,0.049,0.105,0.053
	c-0.06,0.139-0.101,0.268-0.105,0.422c-0.039,0.041-0.232,0.038-0.292,0.049c-0.037,0.006-0.147,0.172-0.216,0.205
	c-0.056,0.029-0.113,0.049-0.176,0.062c-0.027,0.024,0.021,0.128,0,0.157c-0.12,0.034-0.126,0.037-0.158,0.159
	c-0.176,0.047-0.272,0.194-0.425,0.277c-0.129,0.067-0.205,0.211-0.311,0.33c-0.016,0.065-0.051,0.091-0.108,0.077
	c-0.099,0-0.038,0.064-0.104,0.114c-0.135,0.104-0.24,0.237-0.427,0.352c-0.049,0.027-0.087,0.065-0.113,0.114
	c-0.075,0.137-0.092,0.07-0.189,0.166c-0.035,0.045-0.056,0.094-0.062,0.148c-0.081,0.021-0.21,0.008-0.21,0.106
	c0,0.092-0.456,0.397-0.543,0.524c-0.031,0.041-0.17,0.111-0.142,0.003C39.943,32.36,40.102,32.204,40.197,32.035z M39.776,29.243
	c0.3-0.088,0.037,0.098,0.017,0.158c-0.045,0.135-0.075,0.24-0.175,0.264C39.67,29.524,39.724,29.384,39.776,29.243z M39.67,32.562
	c0.201,0.002,0.063,0.066-0.052,0.105C39.636,32.632,39.653,32.597,39.67,32.562z M39.46,32.772c0.113,0.03,0.01,0.143-0.054,0.157
	C39.424,32.878,39.441,32.825,39.46,32.772z M43.2,30.56c-0.097,0.027-0.07,0.164-0.142,0.258c-0.099,0.131-0.258,0.193-0.379,0.299
	c-0.062,0.054-0.078,0.129-0.164,0.129c-0.138,0,0.014,0.066-0.053,0.105c-0.217,0.055-0.222,0.169-0.368,0.254
	c-0.142,0.08-0.201,0.227-0.37,0.273c-0.029,0.098-0.158,0.262-0.263,0.262c-0.121,0-0.054,0.177-0.203,0.176
	c-0.114-0.001-0.258,0.199-0.35,0.273c-0.061,0.046-0.271,0.289-0.278,0.289c-0.184,0-0.119,0.143-0.275,0.225
	c-0.256,0.133-0.392,0.404-0.683,0.531c-0.067,0.029-0.161,0.076-0.161,0.166c0,0.051-0.077,0.026-0.116,0.026
	c-0.084,0-0.034,0.071-0.093,0.114c-0.126,0.094-0.204,0.184-0.369,0.307c-0.024-0.095,0.256-0.284,0.37-0.38
	c0.05-0.041,0.05-0.025,0.05-0.094c0-0.089,0.105-0.104,0.158-0.185c0.071-0.105,0.153-0.072,0.242-0.178
	c0.062-0.076,0.13-0.217,0.231-0.217c0.047,0,0.265-0.195,0.265-0.211c0-0.002,0.245-0.271,0.264-0.275
	c0.162-0.056,0.309-0.172,0.442-0.277c0.133-0.105,0.27-0.221,0.372-0.355c0.053-0.068,0.085,0.001,0.134-0.04
	c0.095-0.079-0.083-0.034,0.111-0.152c0.076-0.047,0.121-0.126,0.199-0.171c0.231-0.139,0.008-0.025,0.11-0.151
	c0.052-0.062,0.105,0.079,0.105-0.052c0-0.1,0.102-0.068,0.177-0.11c0.08-0.044,0.119-0.121,0.139-0.206
	c0.054-0.016,0.119-0.016,0.139-0.078c0.014-0.05,0.196-0.239,0.248-0.266C42.801,30.793,43.312,30.179,43.2,30.56z M46.94,29.032
	c-0.175,0.104-0.222,0.279-0.316,0C46.716,29.005,46.917,28.901,46.94,29.032z M30.135,37.251c0.018,0,0.036,0,0.053,0
	c-0.068-0.137,0.155-0.352,0.185-0.527c0.005-0.033,0.078-0.264,0.105-0.264c0.026,0,0.132-0.199,0.132-0.275
	c0-0.014,0.124-0.25,0.131-0.25c0.036,0,0.162-0.322,0.184-0.369c-0.002,0.004,0.087-0.16,0.08-0.16
	c0.074,0-0.041-0.113-0.027-0.156c0.022-0.002,0.158-0.279,0.158-0.298c0-0.22,0.105-0.217,0.105-0.415
	c0-0.349,0.17-0.832,0.053-1.184c0.206-0.037-0.1-0.912,0.105-0.949c0.004-0.086-0.072-0.109-0.052-0.211
	c0.012-0.066,0.065,0.014,0.052-0.053c-0.179,0.033,0.012-0.316-0.132-0.316c0,0-0.079-0.135-0.079-0.146
	c0-0.126,0.026-0.104-0.105-0.169c-0.033-0.133-0.03-0.193-0.14-0.281c-0.211-0.17-0.23-0.303-0.325-0.546
	c-0.025-0.063-0.103-0.228-0.156-0.228c-0.138,0-0.102-0.045-0.17-0.105c-0.087-0.176-0.632-0.309-0.632-0.579
	c0-0.11-0.398-0.186-0.506-0.221c-0.146-0.048-0.151-0.079-0.232-0.2c-0.131-0.027-0.264-0.053-0.396-0.08
	c-0.214-0.042-0.184-0.184-0.415-0.184c-0.045,0-0.049-0.053-0.155-0.053c-0.117,0-0.234,0-0.352,0
	c-0.009,0,0.021,0.053-0.027,0.053c-0.047,0-0.018-0.053-0.025-0.053c-0.225,0.002-0.45,0-0.674,0c0,0-0.38-0.162-0.38-0.185
	c0,0.005-0.345-0.132-0.344-0.132c-0.448,0-0.98-0.102-1.505-0.01c-0.309,0.053-0.529,0.157-0.785,0.221
	c0.018-0.005-0.158,0.088-0.158,0.08c0,0.003-0.141,0.078-0.159,0.078c-0.024,0-0.263,0.204-0.263,0.184
	c0-0.012-0.296,0.143-0.342,0.158c-0.105,0.035-0.125,0.094-0.185,0.186c-0.034,0.025-0.124-0.025-0.158,0
	c-0.06,0.117-0.272,0.352-0.421,0.315c0.008-0.019,0.139-0.116,0.11-0.142c-0.074-0.064-0.012-0.078-0.005-0.174
	c0-0.002-0.052,0.016-0.052-0.027c0-0.049,0.052-0.015,0.052-0.026c0.042-0.155-0.025-0.301,0.105-0.421
	c0-0.282-0.003-0.359-0.284-0.39c-0.124-0.015-0.25-0.023-0.374-0.007c-0.201,0.026-0.103,0.075-0.132,0.08
	c-0.104,0.018-0.212-0.013-0.316,0c-0.023,0.003,0.037,0.053-0.034,0.053c-0.057,0-0.121-0.008-0.178,0
	c0.027-0.003-0.21,0.085-0.21,0.079c0,0.056-0.236,0.026-0.288,0.026c-0.099,0-0.129,0.053-0.16,0.053
	c-0.056,0,0.003-0.053-0.077-0.053c-0.134,0-0.268,0-0.402,0c-0.276,0-0.553,0-0.83,0c-0.091,0-0.06,0.01-0.129,0.047
	c-0.083,0.043-0.289-0.025-0.379-0.031c-0.211-0.014-0.424,0.002-0.633,0.037c0.019,0.105,0.036,0.21,0.052,0.316
	c-0.053,0.004-0.174,0.741-0.184,0.843c-0.008,0.087-0.017,0.175-0.026,0.263c-0.006,0.035-0.052-0.051-0.052,0.041
	c0,0.094-0.053,0.111-0.053,0.137c0,0.111,0,0.224,0,0.336c0,0.102-0.053,0.029-0.053,0.1c0,0.252-0.158,0.455-0.158,0.672
	c0,0.301-0.07,0.449-0.106,0.771c-0.001,0.004-0.053,0.093-0.053,0.177c0,0.055-0.052,0.035-0.052,0.15
	c0,0.094-0.047-0.021-0.066,0.186c-0.009,0.097-0.017,0.193-0.026,0.29c-0.004,0.048-0.008,0.097-0.013,0.146
	c-0.018,0-0.035,0-0.053,0c-0.038,0.111-0.054,0.116-0.071,0.264c-0.01,0.096-0.087,0.314-0.087,0.338
	c0,0.299-0.069,0.449-0.105,0.768c-0.002,0.008-0.053,0.02-0.053,0.105c0,0.123,0,0.246,0,0.369c0,0.135-0.052,0.207-0.052,0.396
	c0,0.053-0.053,0-0.053,0.098c0,0.096,0.012,0.201,0,0.295c0-0.002-0.053,0.102-0.053,0.18c0,0.059-0.053,0.02-0.053,0.137
	c0,0.154-0.124,0.227-0.053,0.369c-0.043,0.043-0.104,0.092-0.104,0.178c0,0.172-0.053,0.271-0.053,0.377
	c0,0.158-0.052,0.213-0.052,0.307c0,0.16-0.054,0.275-0.054,0.363c0,0.096,0,0.193,0,0.291c0,0.08-0.051,0.049-0.053,0.062
	c-0.009,0.078,0,0.16,0,0.236c0,0.105-0.052,0.053-0.052,0.109c0,0.139-0.054,0.594-0.158,0.605c0.089,0.178-0.052,0.09-0.052,0.262
	c0,0.104-0.05,0.088-0.054,0.105c-0.025,0.258-0.039,0.486-0.105,0.686c-0.017,0.049-0.053-0.041-0.053,0.094
	c0,0.113-0.042,0.139-0.053,0.17c-0.018,0.053-0.032,0.316-0.08,0.316c0.034,0-0.131,0.639-0.131,0.662
	c0,0.371-0.21,0.545-0.21,0.891c0,0.064-0.053-0.004-0.053,0.045c0,0.086,0,0.172,0,0.258c0,0.209-0.08,0.246-0.159,0.355
	c-0.054,0.1-0.108,0.217-0.102,0.324c0.015,0.26,0.065,0.26,0.313,0.283c0.125,0.012,0.2,0.027,0.29-0.016
	c0.119-0.061,0.262,0.08,0.396,0.041c0.009,0-0.018-0.051,0.04-0.051c0.109,0,0.218,0,0.329,0c0.093,0,0.188,0,0.28,0
	c0.082,0,0.079,0.051,0.088,0.051c0.146,0.023,0.566,0.117,0.58,0.055c0.28,0.039,0.373,0.105,0.645,0.105
	c0.044,0,0.198-0.029,0.198,0.025c0,0.07,0.045,0.008,0.052-0.025c0.088,0.018,0.175,0.033,0.264,0.051c0.035-0.139,0.162,0,0.264,0
	c0.041-0.096,0.199-0.049,0.319-0.088c0.25-0.08,0.126-0.324,0.102-0.543c0.155-0.014-0.048-0.303,0.106-0.316
	c-0.018-0.053-0.036-0.105-0.053-0.158c0.017,0,0.035,0,0.053,0c-0.018-0.053-0.036-0.105-0.053-0.158
	c0.127-0.025,0.03-0.396,0.053-0.525c0.009,0,0.018,0,0.026,0c0.07,0.006,0.082-0.045,0.037-0.158c0.01-0.16,0.02-0.316,0.031-0.477
	c0.002-0.023,0.071-0.314,0.09-0.314c-0.035,0,0.135-0.379,0.131-0.371c0.061-0.178,0.044-0.291,0.105-0.473
	c-0.004,0.012,0.166-0.369,0.131-0.369c0.077,0,0.082-0.369,0.158-0.369c0.046,0,0.159-0.426,0.17-0.496
	c0.033-0.197,0.044,0.002,0.066,0.023c0.049,0.043,0.105-0.061,0.105,0.039c0,0.145,0.024,0.127,0.158,0.172
	c0.112,0.166,0.148,0.164,0.341,0.203c0.068,0.014,0.146,0.166,0.186,0.219c0.104,0.102,0.042-0.129,0.158,0.104
	c0.131,0.014,0.264,0.027,0.395,0.041c0.513,0.051-0.003,0.012,0.132,0.064c0.045,0.018,0.114-0.02,0.157,0
	c0.027,0.014,0.125,0.084,0.211,0.105c-0.017-0.006,0.159,0.088,0.159,0.08c0,0.055,0.236,0.025,0.289,0.025
	c0.448,0,0.85,0.076,1.305-0.012c0.529-0.098,1.041-0.119,1.579-0.141c0.029,0,0.357-0.131,0.357-0.137
	c0-0.029,0.161-0.078,0.211-0.078c0.144,0,0.071-0.053,0.222-0.053c0.07,0,0.294-0.078,0.437-0.094
	c0.165-0.016,0.151-0.043,0.237-0.17c0.039-0.023,0.114,0.014,0.158,0c0.093-0.031-0.204-0.066,0.092-0.066
	c0.113-0.002,0.215,0.055,0.329,0.041c0.093-0.012,0.222-0.102,0.265-0.186c0.039-0.02,0.123,0.025,0.157,0
	c0.034-0.053,0.072-0.158,0.139-0.158c0.052,0,0.127,0.014,0.177,0c0.109-0.221,0.035-0.023,0.158-0.104
	c0.091-0.053,0.167-0.127,0.26-0.174c0.157-0.078,0.048-0.123,0.206-0.168c0.218-0.062,0.264-0.24,0.432-0.336
	c0.169-0.098,0.208-0.312,0.366-0.42c0.073-0.049,0.151-0.088,0.224-0.139c0.078-0.049,0-0.078,0.04-0.137
	c0.139-0.07,0.121-0.117,0.158-0.262C30.063,37.405,30.169,37.374,30.135,37.251z M15.384,43.468c-0.035,0-0.07,0-0.105,0
	C15.324,43.317,15.45,43.243,15.384,43.468z M16.175,39.886c0.038-0.078,0.029-0.121,0.105-0.105
	C16.322,39.798,16.187,39.88,16.175,39.886C16.193,39.849,16.179,39.884,16.175,39.886z M17.333,34.722
	c-0.035,0.127-0.16,0.125-0.172,0.219c-0.008,0.062-0.047,0.088-0.091,0.098c0.06-0.154,0.071-0.427,0.316-0.369
	C17.348,34.72,17.384,34.685,17.333,34.722C17.293,34.865,17.394,34.677,17.333,34.722z M18.334,29.716
	c0.064-0.022,0.18-0.279,0.27-0.375c0.07-0.074,0.21-0.117,0.109,0.022c-0.032,0.042-0.053,0.09-0.062,0.143
	c-0.034,0-0.07,0-0.105,0c-0.019,0.068-0.098,0.264-0.184,0.264c-0.073,0-0.063,0.204-0.185,0.211
	C18.207,29.869,18.265,29.804,18.334,29.716z M18.44,40.833c-0.105-0.031-0.107,0.012-0.132,0.105
	c-0.054,0.217-0.112,0.037-0.142,0.068c0.052-0.057,0.242-0.225,0.273-0.281c0.018-0.086,0.036-0.174,0.053-0.262
	c0.047-0.008,0.09-0.025,0.131-0.051c0.017-0.02,0.008-0.129,0.026-0.16c0.208-0.104,0.154-0.408,0.474-0.316
	C19.038,40.319,18.627,40.511,18.44,40.833z M19.02,36.513c0.04-0.078,0.029-0.121,0.105-0.105
	C19.167,36.427,19.032,36.505,19.02,36.513C19.037,36.478,19.023,36.511,19.02,36.513z M19.389,36.249
	c-0.053,0.018-0.106,0.037-0.158,0.055C19.287,36.19,19.343,36.149,19.389,36.249z M19.599,39.833c-0.035,0-0.07,0-0.105,0
	c0.029-0.115,0.078-0.236,0.21-0.213C19.663,39.698,19.62,39.743,19.599,39.833z M20.336,35.405
	c-0.161,0.055-0.323,0.244-0.368,0.422c-0.113,0.029-0.31,0.088-0.343,0.186c-0.025,0.074-0.102,0.133-0.185,0.133
	c-0.075,0-0.075-0.055,0-0.055c0.078,0,0.183-0.236,0.259-0.305c0.116-0.109,0.557-0.573,0.689-0.537
	C20.372,35.302,20.354,35.354,20.336,35.405C20.284,35.423,20.354,35.354,20.336,35.405z M19.756,33.562
	c0.106,0.032,0.046-0.006,0.107,0.055C19.757,33.585,19.816,33.623,19.756,33.562z M20.389,34.563
	C20.284,34.52,20.384,34.365,20.389,34.563L20.389,34.563z M20.389,30.56c0.058,0.196-0.229,0.305-0.316,0.475
	c-0.035,0-0.071,0-0.105,0c-0.021,0.07-0.054,0.135-0.101,0.191c-0.089,0.117-0.19,0.217-0.321,0.283
	c-0.013,0.014-0.088,0.178-0.105,0.211c-0.035,0-0.071,0-0.105,0c-0.006,0.042-0.02,0.08-0.04,0.117
	c-0.091,0.095-0.12,0.043-0.171,0.198c-0.043,0.033-0.049,0.05-0.105,0.053c0.015-0.059,0.039-0.113,0.071-0.163
	c0.092-0.184,0.074-0.01,0.14-0.102c0.019-0.086,0.126-0.368,0.237-0.368c-0.022,0,0.163-0.215,0.201-0.245
	c0.03-0.023,0.194-0.25,0.194-0.256c-0.008-0.063,0.035-0.099,0.131-0.104c0.147-0.089,0.136-0.092,0.184-0.238
	c0.035,0,0.071,0,0.105,0c0.092-0.105,0.185-0.21,0.276-0.316c0.027-0.082,0.076-0.117,0.146-0.104c0.132,0-0.009-0.054,0.052-0.106
	c0.087-0.022,0.148-0.068,0.211-0.104c-0.098,0.146-0.148,0.216-0.211,0.315c-0.103,0.09-0.111-0.005-0.157,0.158
	c-0.054,0.06-0.105-0.076-0.105,0.053C20.495,30.577,20.457,30.577,20.389,30.56z M20.495,38.831
	C20.39,38.786,20.489,38.632,20.495,38.831L20.495,38.831z M20.969,34.089c-0.133,0.035-0.233,0.131-0.369,0.158
	c-0.057,0.036,0.055,0.145-0.105,0.106c0.003,0.002,0.283-0.505,0.263-0.475c0.074-0.107,0.193-0.293,0.316-0.317
	C21.005,33.733,20.968,33.906,20.969,34.089C20.803,34.134,20.968,33.863,20.969,34.089z M28.713,29.716
	c0.306-0.086,0.048,0.143-0.043,0.215c-0.081,0.064-0.272,0.066-0.272,0.154c0,0.072-0.144,0.135-0.216,0.175
	c-0.146,0.08-0.104,0.194-0.27,0.194c-0.098,0,0.024,0.096-0.13,0.115c-0.072,0.01-0.116,0.07-0.174,0.096
	c0.058-0.094,0.166-0.135,0.225-0.227c0.103-0.161,0.08,0.002,0.197-0.09C28.19,30.071,28.547,29.991,28.713,29.716z M28.344,36.671
	c0.039-0.076,0.029-0.121,0.106-0.105C28.492,36.585,28.356,36.665,28.344,36.671C28.361,36.636,28.349,36.667,28.344,36.671z
	 M27.396,29.716c0.136,0.039,0.36-0.367,0.592-0.367c0.146,0-0.097,0.115-0.123,0.135c-0.122,0.096-0.202,0.199-0.363,0.232
	c0,0.036,0,0.071,0,0.106c-0.086,0.022-0.142,0.051-0.211,0.105c0,0.001-0.105,0.087-0.105,0.079c0,0.038-0.239,0.237-0.262,0.237
	c-0.124,0-0.15,0.175-0.264,0.21C26.838,30.146,27.216,30.025,27.396,29.716z M26.869,35.144c0.16,0.039,0.048-0.066,0.105-0.105
	c0.07-0.019,0.263-0.096,0.263-0.184c0,0.047,0.263-0.304,0.263-0.133c0,0.084-0.369,0.248-0.369,0.289
	c0,0.04-0.089,0.131-0.105,0.185c-0.035,0-0.07,0-0.104,0c-0.027,0.099-0.038,0.095-0.106,0.159
	c-0.045,0.055-0.202,0.135-0.264,0.211c0,0.033,0,0.07,0,0.105c-0.055,0.031-0.107,0.064-0.158,0.104c-0.035,0-0.07,0-0.105,0
	c-0.023,0.076-0.002,0.055-0.053,0.105c-0.014,0.004,0.018,0.061-0.053,0.055c-0.089-0.008,0.068-0.18,0.086-0.186
	c0.105-0.043,0.154-0.129,0.178-0.236C26.635,35.466,26.791,35.317,26.869,35.144z M26.816,31.298
	c0.042-0.071,0.086-0.117,0.158-0.158C26.988,31.246,26.914,31.29,26.816,31.298z M27.29,30.929
	C27.295,30.729,27.395,30.884,27.29,30.929L27.29,30.929z M24.972,30.719c0.167,0.04,0.044-0.106,0.158-0.106
	c0.11,0,0.227-0.217,0.369-0.264c0-0.034,0-0.07,0-0.104c0.054-0.016,0.12-0.015,0.138-0.078c0.017-0.058,0.187-0.204,0.231-0.238
	c0.036,0,0.07,0,0.106,0c0.051-0.04-0.049-0.021,0.079-0.105c0.057-0.038,0.29-0.222,0.29-0.264
	c-0.017-0.067,0.018-0.094,0.105-0.079c0.262-0.064-0.009-0.045,0.105-0.131c0.125-0.032,0.163-0.127,0.264-0.053
	c-0.075,0.122-0.206,0.183-0.303,0.282c-0.019,0.071-0.057,0.101-0.119,0.087c-0.135,0,0.013,0.06-0.052,0.104
	c-0.219,0.06-0.304,0.22-0.448,0.315C25.774,30.166,25.022,30.876,24.972,30.719z M26.184,30.876c-0.017,0-0.035,0-0.052,0
	c0.072-0.109,0.259-0.281,0.369-0.316C26.423,30.693,26.28,30.76,26.184,30.876z M26.5,31.509c-0.053,0.078-0.07,0.144-0.158,0.157
	C26.394,31.588,26.411,31.522,26.5,31.509z M26.132,31.823c0.039-0.077,0.028-0.119,0.104-0.104
	C26.279,31.738,26.144,31.817,26.132,31.823C26.149,31.789,26.135,31.822,26.132,31.823z M25.974,31.14
	c-0.105-0.033-0.046,0.007-0.106-0.053C25.973,31.118,25.914,31.08,25.974,31.14z M25.394,31.561c0.04-0.077,0.029-0.12,0.105-0.105
	C25.541,31.476,25.407,31.554,25.394,31.561C25.411,31.526,25.398,31.558,25.394,31.561z M24.92,30.823c0.018,0,0.035,0,0.052,0
	c0.042,0.02-0.093,0.099-0.105,0.105C24.885,30.894,24.902,30.858,24.92,30.823z M21.391,33.194
	c0.076,0.022,0.054,0.002,0.104,0.053c-0.085,0.05-0.12,0.148-0.21,0.157C21.307,33.317,21.35,33.271,21.391,33.194
	C21.495,33.226,21.341,33.289,21.391,33.194z M24.657,36.776c-0.125,0-0.505,0.061-0.528-0.053c-0.067-0.01-0.159,0.053-0.251,0.053
	c-0.184,0-0.367,0-0.551,0c-0.092,0-0.35-0.088-0.514-0.105c-0.339-0.037-0.65-0.08-0.843-0.367c-0.095-0.072-0.058,0.07-0.158-0.08
	c-0.091-0.139-0.128-0.021-0.21-0.186c-0.133-0.109-0.3-0.197-0.343-0.367c-0.02-0.082-0.079-0.102-0.079-0.133
	c0-0.176-0.053-0.215-0.053-0.343c0-0.107,0.098-0.132,0-0.157c0.018-0.053,0.035-0.105,0.053-0.158
	c-0.085-0.008-0.019-0.32-0.053-0.421c0.011-0.013,0.079-0.105,0.079-0.105c0.057,0,0.048-0.27,0.052-0.317
	c0.015-0.178-0.027-0.269,0.127-0.354c0.145-0.081,0.216-0.118,0.269-0.277c0.024-0.026,0.157-0.145,0.157-0.198
	c0-0.157,0.158-0.147,0.158-0.264c0-0.202,0.235-0.288,0.351-0.451c0.19-0.266,0.347-0.303,0.65-0.403
	c0.025-0.015,0.08-0.081,0.105-0.105c0.026-0.001,0.207,0.063,0.211,0.105c0.088-0.019,0.176-0.035,0.263-0.053
	c0.022,0.122,0.684,0.053,0.829,0.053c0.098,0,0.409,0.212,0.436,0.052c0.278,0.035,0.495,0.074,0.685,0.158
	c0.027,0.013-0.03,0.048,0.024,0.057c0.07,0.012,0.14,0.023,0.21,0.036c0.059,0.009,0.24,0.144,0.24,0.145
	c0,0.058,0.215,0.07,0.263,0.079c0.016,0.055,0.015,0.119,0.079,0.138c0.185,0.054-0.008,0.05,0.08,0.126
	c0.078,0.02,0.151,0.036,0.184,0.118c0.13,0.327,0.097,0.695,0.048,1.034c-0.056,0.386-0.071,0.899-0.335,1.216
	c-0.032,0.038-0.213,0.259-0.213,0.267c0,0.062-0.205,0.287-0.264,0.314c-0.046,0.086-0.002,0.211-0.158,0.211
	c-0.099,0-0.118,0.131-0.159,0.211c-0.066,0.07-0.068-0.055-0.157,0.08c-0.046,0.066-0.181,0.117-0.212,0.131
	c-0.126,0.043-0.146,0.031-0.21,0.158C24.775,36.653,24.727,36.636,24.657,36.776z M25.71,36.407
	c0.039-0.078,0.029-0.119,0.105-0.104C25.857,36.321,25.723,36.399,25.71,36.407C25.728,36.372,25.714,36.405,25.71,36.407z
	 M25.446,36.671c-0.015,0.127-0.411,0.305-0.526,0.369C24.994,36.915,25.296,36.636,25.446,36.671z M25.289,37.831
	c-0.214,0.07-0.303,0.312-0.527,0.367c0.093-0.105,0.185-0.209,0.277-0.316c0.045-0.078,0.111-0.131,0.198-0.158
	c0-0.033,0-0.07,0-0.104c0.078-0.053,0.198-0.213,0.263-0.213c0.165,0,0.099-0.262,0.264-0.262c0.09,0,0.111-0.088,0.158-0.158
	c0.057-0.043,0.089,0.02,0.147-0.051c0.085-0.104,0.172-0.297,0.327-0.266c-0.04,0.078-0.06,0.211-0.159,0.211
	c-0.111,0-0.07,0.146-0.195,0.139c-0.051-0.006-0.176,0.215-0.222,0.242c-0.108,0.066-0.136,0.23-0.263,0.266
	c-0.103,0.033-0.134,0.092-0.163,0.195C25.351,37.78,25.249,37.671,25.289,37.831z M27.08,38.04
	c-0.132-0.037-0.158,0.174-0.316,0.211c-0.063,0.049,0.08,0.104-0.053,0.104c-0.083,0-0.053,0.041-0.053,0.119
	c0,0.076-0.095,0.072-0.158,0.094c-0.088,0.123-0.176,0.246-0.264,0.369c-0.048,0.064-0.104-0.08-0.104,0.053
	c0,0.096-0.109,0.092-0.179,0.15c-0.104,0.086-0.085,0.051-0.085,0.178c0,0.08-0.089,0.059-0.147,0.096
	c-0.022,0.016-0.168,0.158-0.168,0.129c0,0.033-0.19,0.266-0.209,0.186c-0.008-0.029,0.265-0.369,0.262-0.369
	c0.047,0,0.285-0.293,0.328-0.369c0.098-0.174,0.083-0.021,0.147-0.105c0.019-0.086,0.049-0.178,0.123-0.232
	c0.288-0.211,0.427-0.414,0.632-0.697c0.178-0.25,0.072-0.018,0.193-0.123c0.099-0.088-0.112-0.053,0.093-0.135
	c0.082-0.031,0.1-0.104,0.118-0.182c0.101-0.027,0.189-0.078,0.265-0.15c0.134-0.129,0.222-0.281,0.419-0.324
	c0.035-0.117,0.206-0.299,0.317-0.316c-0.112,0.211-0.338,0.414-0.475,0.527c-0.069,0.047-0.158,0.068-0.158,0.156
	c0,0.08-0.13,0.139-0.185,0.213c-0.079,0.104-0.157,0.209-0.237,0.314C27.141,37.993,27.041,37.882,27.08,38.04z M29.977,36.146
	c0.039,0.158-0.059,0.049-0.104,0.104c0,0.037,0,0.07,0,0.105c-0.07,0.016-0.132,0.045-0.186,0.092
	c-0.07,0.057-0.062,0.119-0.131,0.119c-0.145,0-0.066,0.211-0.21,0.211c-0.049,0-0.178,0.174-0.21,0.211
	c-0.025,0.027-0.023,0.07-0.053,0.105c-0.091,0.131-0.181,0.068-0.246,0.199c-0.116,0.229-0.382,0.322-0.542,0.516
	c-0.119,0.141-0.222,0.115-0.302,0.281c-0.045,0.096-0.124,0.119-0.207,0.166c-0.111,0.062-0.073,0.154-0.153,0.234
	c-0.07,0.07-0.13,0.035-0.183,0.078c-0.059,0.082-0.206,0.387-0.317,0.369c0.167-0.367,0.467-0.635,0.75-0.912
	c0.113-0.107,0.206-0.23,0.303-0.352c0.036,0,0.07,0,0.106,0c0.07-0.105,0.093-0.152,0.21-0.211c0.074-0.072-0.007-0.104,0.158-0.16
	c0.098-0.109,0.33-0.473,0.475-0.473c0.083,0,0.158-0.074,0.158-0.158c0-0.045,0.258-0.24,0.315-0.316c0.036,0,0.071,0,0.106,0
	c0-0.035,0-0.068,0-0.105c0.11-0.027,0.213-0.133,0.295-0.205c0.071-0.064,0.456-0.559,0.548-0.479
	C30.599,35.599,30.104,36.169,29.977,36.146z M54.475,28.874c-0.093-0.092-0.143-0.105-0.343-0.105
	c-0.116,0-0.228,0.075-0.362,0.066c-0.173-0.012-0.35-0.051-0.525-0.031c-0.074,0.008-0.267,0.123-0.314,0.123
	c-0.121,0-0.43-0.057-0.458,0.053c-0.151-0.029-0.229-0.07-0.368,0c-0.027-0.18-0.553,0.074-0.581-0.105
	c-0.069,0.018-0.14,0.035-0.21,0.053c-0.004-0.096-0.364-0.096-0.368,0c-0.042,0.009-0.075-0.002-0.099-0.035
	c-0.021-0.035-0.282,0.027-0.323,0.035c-0.086,0.193-0.258,0.433-0.158,0.632c-0.07,0.008-0.125,0.42-0.161,0.403
	c0.023-0.008,0.041-0.002,0.057,0.019c-0.007,0.163-0.158,0.436-0.158,0.567c0,0.044-0.062,0.275-0.078,0.275
	c-0.109,0-0.05,1.055-0.159,1.055c-0.136,0-0.155,1-0.265,1c-0.145,0-0.174,0.68-0.183,0.791c-0.171,0.084-0.123,0.283-0.138,0.463
	c-0.008,0.091-0.015,0.183-0.022,0.273c0.012,0.055,0.073,0.011,0.055,0.105c-0.093,0.039-0.071,0.131-0.089,0.246
	c0.021,0.102-0.021,0.161-0.122,0.176c0.018,0.07,0.036,0.14,0.052,0.211c-0.043,0.051-0.052-0.08-0.052,0.052
	c0.016,0.066-0.021,0.103-0.106,0.106c0.019,0.104,0.035,0.211,0.053,0.316c-0.146,0.006-0.021,0.367-0.13,0.367
	c0.021,0-0.133,0.498-0.133,0.547c0,0.055-0.053,0.035-0.053,0.15c0,0.061-0.063,0.229-0.069,0.357
	c-0.012,0.205,0.051,0.588-0.141,0.684c-0.026,0.109-0.002,0.236-0.02,0.348c-0.019,0.113,0.046,0.918-0.06,0.918
	c-0.059,0-0.064,0.369-0.106,0.369c0.007,0-0.121,0.416-0.184,0.475c0.018,0.174,0.048,0.209,0.211,0.262
	c0.103-0.135,0.112-0.205,0.289-0.223c0.132-0.014,0.265-0.027,0.395-0.039c0,0.016,0,0.033,0,0.053
	c0.013,0.002,0.123-0.137,0.157-0.018c0.013,0.039,0.176,0.018,0.216,0.018c0.107,0,0.518-0.061,0.523,0.051
	c0.085,0.014,0.107-0.078,0.211-0.051c0.011,0.133,0.374,0.031,0.474,0c0.006,0.156,0.367,0.006,0.422,0c0,0.016,0,0.033,0,0.051
	c0.121-0.002,0.134-0.059,0.242-0.006c0.105,0.053,0.07-0.066,0.179-0.045c0.053-0.004,0.065,0.076,0.157,0.051
	c0.023-0.096,0.451-0.096,0.476,0c0.118-0.045,0.411-0.092,0.441-0.223c0.019-0.08-0.003-0.143,0.085-0.145
	c0.015-0.068-0.053-0.184-0.053-0.266c0-0.121,0-0.238,0-0.359c0-0.051,0.053-0.139,0.053-0.113
	c0.001-0.088-0.063-0.188-0.053-0.264c0.139-0.027,0-1,0.184-1c0.039,0,0.08-0.273,0.08-0.336c0-0.006,0.2-0.508,0.237-0.508
	c0.053,0,0.044-0.115,0.052-0.158c0.016-0.088,0.132-0.219,0.132-0.242c0-0.047-0.029-0.178,0.026-0.178
	c-0.012,0,0.085-0.123,0.08-0.107c0.048-0.139,0.021-0.258,0.053-0.367c0.006-0.025,0.052-0.068,0.052-0.172
	c0-0.123,0.053-0.055,0.053-0.133c0-0.125,0.039-0.078,0.053-0.117c0.009-0.025,0.058-0.188,0.053-0.159c0.009-0.07,0-0.151,0-0.223
	c0-0.121,0.039-0.108,0.053-0.146c0.026-0.072,0.033-0.073,0.052-0.105c-0.003,0.006,0.061-0.206,0.053-0.157
	c0.026-0.188,0-0.397,0-0.585c0-0.302,0.138-0.663,0.196-0.963c0.054-0.283,0.084-0.543,0.121-0.823
	c0.002-0.014,0.053-0.001,0.053-0.093c0-0.079,0.053-0.173,0.053-0.172c0.02-0.154,0.037-0.397,0-0.473
	c0.107-0.005,0.053-0.253,0.053-0.35c0-0.069,0.158-0.221,0.158-0.336c0-0.222,0.157-0.389,0.157-0.645
	c0-0.18,0.104-0.443,0.157-0.619c0.005-0.013,0.098-0.043,0.073-0.137c-0.024-0.102,0.113-0.144,0.065-0.297
	C54.806,28.757,54.652,28.845,54.475,28.874z M49.152,37.093c-0.086,0.049-0.12,0.148-0.211,0.158
	C48.954,37.134,49.134,36.901,49.152,37.093z M50.048,39.569c-0.122,0-0.245,0-0.368,0c0.061-0.115,0.146-0.232,0.264-0.264
	c0-0.035,0-0.072,0-0.105c0.07-0.018,0.14-0.035,0.211-0.053c0.056-0.029-0.056-0.145,0.105-0.107
	C50.162,39.216,50.063,39.364,50.048,39.569z M53.684,31.351c0.081,0.032,0.084,0.094-0.026,0.132
	c-0.069-0.005-0.097,0.021-0.079,0.078c0,0.13-0.051-0.006-0.105,0.054c-0.032,0.117-0.231,0.283-0.316,0.315
	C53.332,31.736,53.509,31.544,53.684,31.351z M52.735,29.349c0.035-0.1,0.049-0.039,0.052,0.053
	c-0.075-0.023-0.055-0.002-0.105-0.053C52.7,29.349,52.718,29.349,52.735,29.349z M53.788,32.298
	c-0.111,0.09-0.232,0.254-0.343,0.291c-0.172,0.058-0.002,0.043-0.077,0.131c-0.053,0.061-0.106-0.078-0.106,0.053
	c0,0.074-0.353,0.297-0.421,0.422c-0.051,0.062-0.105-0.08-0.105,0.053c0,0.068-0.188,0.141-0.246,0.211
	c-0.037,0.045-0.14,0.211-0.202,0.211c-0.076,0,0.011,0.071-0.025,0.104c-0.094,0.026-0.138,0.077-0.217,0.12
	c-0.127,0.07-0.127,0.18-0.254,0.256c-0.123,0.074-0.908,0.837-0.953,0.783c-0.013-0.018,0.566-0.546,0.64-0.613
	c0.132-0.119,0.158-0.251,0.336-0.309c0.12-0.04,0.063-0.237,0.236-0.237c0.157,0,0.427-0.408,0.536-0.526
	c0.149-0.164,0.105-0.025,0.201-0.105c0.081-0.161,0.231-0.254,0.369-0.369c0.085-0.076-0.098-0.072,0.079-0.131
	c0.132-0.045,0.2-0.162,0.29-0.265C53.593,32.302,53.888,31.96,53.788,32.298z M53.842,31.351c-0.018,0-0.036,0-0.054,0
	c0.026-0.104,0.066-0.186,0.158-0.211C53.925,31.226,53.883,31.272,53.842,31.351z M55.423,26.082
	c-0.046-0.155,0.092-0.218,0.081-0.396c-0.004-0.083,0.273-0.553,0.043-0.553c-0.206,0-0.371,0.086-0.586,0.076
	c-0.134-0.007-0.676-0.117-0.697,0.029c-0.074-0.037-0.253-0.119-0.265,0c-0.093,0.018-0.053-0.041-0.105-0.053
	c-0.187-0.035-0.079,0.092-0.263,0c-0.035,0.12-0.422-0.005-0.422,0.078c0,0.01-0.378,0.062-0.422,0.08
	c-0.047,0.019-0.105,0.08-0.228,0.082c-0.195,0.001-0.389-0.023-0.582-0.053c-0.277-0.041-0.405,0.029-0.718-0.029
	c-0.087,0.234-0.104,0.416-0.104,0.664c0,0.132-0.119,0.258-0.054,0.39c-0.019,0.019-0.104,0.104-0.104,0.126
	c0,0.059,0.029,0.348-0.027,0.348c-0.062,0,0.014,0.66-0.08,0.613c0.121,0.059,0.002,0.05,0.002,0.072
	c0,0.115-0.038,0.171-0.054,0.211c-0.286,0.424,0.415,0.469,0.709,0.473c0.531,0.007,1.066,0.023,1.595,0.01
	c0.476-0.012,0.952-0.175,1.423-0.136c0.061,0.005,0.384-0.024,0.384-0.103c0-0.129,0-0.256,0-0.385c0,0.02,0.042-0.146,0.052-0.176
	c0.009-0.025,0.054,0.03,0.054-0.018c0-0.064,0-0.129,0-0.193c0-0.246,0.099-0.304,0.122-0.527
	C55.188,26.601,55.272,26.116,55.423,26.082z M51.628,27.662c0,0.018,0,0.035,0,0.053c-0.031-0.001-0.108,0.004-0.129-0.026
	c0.021,0.033,0.084-0.085,0.076-0.079c0.077,0.023,0.054,0.003,0.105,0.053C51.664,27.662,51.646,27.662,51.628,27.662z
	 M53.735,25.608c0.106,0.031,0.046-0.008,0.106,0.053C53.735,25.629,53.797,25.668,53.735,25.608z M65.694,28.821
	c-0.109-0.029-0.19-0.093-0.316-0.067c-0.093,0.02-0.23,0.132-0.315,0.12c0-0.018,0-0.035,0-0.053
	c-0.141,0.018-0.281,0.035-0.42,0.053c-0.001,0,0.004,0.057-0.054,0.053c0.023,0.002-0.237-0.083-0.303-0.086
	c-0.178-0.004-0.353,0.016-0.527,0.011c-0.196-0.005-0.655-0.004-0.805-0.136c-0.051-0.069,0.073-0.542-0.054-0.506
	c0.091-0.027,0.029-0.098,0.002-0.179c0.123-0.013-0.017-0.146,0.105-0.157c-0.019-0.053-0.035-0.105-0.054-0.159
	c0.035-0.001,0.147-0.665,0.158-0.737c-0.041-0.01-0.037-0.304,0.055-0.316c-0.079-0.158,0.068-0.177,0.105-0.263
	c0.035-0.095,0.028-0.187,0.023-0.284c-0.009-0.15,0.09-0.219,0.076-0.369c-0.016-0.162-0.092-0.367-0.27-0.33
	c-0.164,0.035-0.291,0.088-0.46,0.088s-1.081-0.092-1.11,0.053c-0.105,0.026-0.121-0.059-0.21-0.053c0,0.017,0,0.035,0,0.053
	c-0.176-0.018-0.352-0.036-0.527-0.053c-0.027,0.115-0.448,0.053-0.575,0.053c-0.361,0-0.654,0.078-1.057,0.105
	c-0.059,0.057-0.084,0.315,0.025,0.315c0.103,0,0.003,0.341-0.013,0.396c-0.08,0.268-0.137,0.484-0.17,0.764
	c-0.056,0.435-0.263,0.808-0.32,1.233c-0.103,0.741-0.499,0.556-1.07,0.582c-0.25,0.011-0.264,0.165-0.521,0.196
	c-0.338,0.041-0.634-0.062-0.961-0.062c-0.152,0-0.224,0.573-0.237,0.685c-0.006,0.028-0.053-0.041-0.053,0.033
	c0,0.054,0.012,0.124,0,0.178c-0.003,0.011-0.158,0.21-0.162,0.233c-0.041,0.248-0.073,0.319-0.102,0.557
	c0.001-0.004-0.053,0.058-0.053,0.132c0,0.173,0,0.344,0,0.517c0,0.044,0.029,0.195-0.026,0.195c0.01,0-0.104,0.162-0.11,0.188
	c-0.021,0.106-0.086,0.089-0.047,0.206c0.043,0.135,0.171,0.09,0.301,0.1c0.296,0.023,0.444,0.086,0.725,0.097
	c0.37,0.013,0.738,0.027,1.106,0.041c-0.056,0.333-0.188,0.624-0.229,0.935c-0.037,0.25-0.058,0.501-0.081,0.752
	c-0.037,0.406-0.268,0.812-0.268,1.211c0,0.082-0.098,0.527-0.184,0.527c0.008,0-0.084,0.182-0.079,0.156
	c-0.013,0.139-0.022,0.275-0.033,0.412c-0.007,0.092-0.013,0.182-0.021,0.273c-0.018,0-0.036,0-0.053,0
	c-0.051,0.375-0.089,0.869-0.075,1.316c0.01,0.328,0.024,0.725,0.177,1.023c0.077,0.152,0.15,0.117,0.268,0.188
	c0.137,0.154,0.355,0.529,0.565,0.529c0.234,0,0.319,0.158,0.554,0.158c0.113,0,0.081-0.023,0.146,0.105
	c0.077,0.152,0.153,0.115,0.315,0.131c0.165,0.018,0.227,0.078,0.346,0.078c0.78,0,1.561-0.01,2.341,0
	c0.258,0.004,0.48,0.105,0.743,0.105c0.295,0,0.589,0,0.886,0c0.013,0,0.042,0.004,0.056,0c0.114-0.166,0.169-0.17,0.37-0.211
	c0.171-0.035,0.239,0.002,0.292-0.168c0.054-0.164,0.156-0.25,0.076-0.41c0.032-0.008,0.054-0.109,0.054-0.213
	c0-0.152,0-0.307,0-0.459c0-0.064,0.104-0.025,0.104-0.107c0-0.176,0.139-0.104,0.054-0.275c0.137,0.025,0.072-1.234,0.21-1.211
	c0-0.125-0.013-0.238-0.066-0.35c-0.099-0.195-0.396,0.084-0.391,0.09c-0.159-0.199-0.4,0.049-0.543,0.049
	c-0.089,0-0.599,0.174-0.632,0c-0.054,0.018-0.106,0.037-0.159,0.053c0.02-0.105-0.359-0.078-0.442-0.086
	c-0.099-0.006-0.196-0.012-0.295-0.02c-0.022-0.088-0.055-0.139-0.105-0.211c-0.018,0-0.035,0-0.053,0
	c-0.024-0.037,0.017-0.115,0-0.158c-0.013-0.031-0.059-0.066-0.069-0.174c-0.009-0.119-0.021-0.236-0.031-0.355
	c-0.005-0.051,0.046-0.127,0.048-0.104c-0.003-0.076-0.061-0.203-0.05-0.355c0.015-0.22,0.03-0.438,0.047-0.656
	c0.012-0.155,0.206-0.283,0.258-0.438c0.057-0.17,0.045-0.436,0.066-0.615c0.019-0.153,0.037-0.309,0.048-0.463
	c0.003-0.009,0.06-0.02,0.086-0.102c0.032-0.104,0.063-0.213,0.071-0.32c-0.118-0.031-0.005-0.029,0-0.053
	c0.057-0.168,0.12-0.604,0.291-0.653c0.098-0.028,0.024-0.137,0.135-0.137c0.118,0,0.237,0,0.355,0c0.442,0,0.884,0,1.326,0
	c0.21,0,0.38,0.007,0.579-0.053c0.029-0.009,0.103-0.058,0.212-0.053c0.165,0.007,0.302,0.02,0.473,0
	c0.105-0.312,0.158-0.374,0.158-0.72c0-0.207,0.091-0.457,0.12-0.666c0.029-0.211,0.183-0.539,0.093-0.722
	c0.054-0.008,0.193-0.687,0.209-0.79C65.653,29.016,65.694,28.917,65.694,28.821z M55.896,30.823
	C55.792,30.778,55.891,30.625,55.896,30.823L55.896,30.823z M56.054,31.823c0.105,0.032,0.045-0.006,0.105,0.055
	C56.054,31.845,56.114,31.884,56.054,31.823z M57.424,34.722c-0.086,0.051-0.122,0.148-0.212,0.158
	c0.041-0.09,0.1-0.369,0.159-0.369C57.467,34.511,57.424,34.64,57.424,34.722z M58.107,32.983c-0.076-0.023-0.053-0.002-0.104-0.054
	C58.069,32.869,58.103,32.853,58.107,32.983z M58.267,37.62C58.162,37.573,58.262,37.421,58.267,37.62L58.267,37.62z M58.267,32.772
	c-0.059,0.146-0.124-0.146,0.053-0.105C58.297,32.743,58.316,32.722,58.267,32.772z M62.691,26.609c0.019,0,0.035,0,0.053,0
	c-0.059,0.116-0.039,0.146,0,0.263c-0.095,0.033-0.169,0.079-0.262,0.105c-0.029-0.034-0.026-0.025-0.053-0.053
	C62.471,26.767,62.596,26.724,62.691,26.609z M59.53,31.403c0.036-0.1,0.049-0.04,0.053,0.052c-0.074-0.022-0.056-0.001-0.104-0.052
	C59.496,31.403,59.514,31.403,59.53,31.403z M59.479,36.146c0.162,0.068-0.079,0.164-0.157,0.209
	C59.37,36.271,59.469,36.235,59.479,36.146z M59.268,27.188C59.493,27.232,59.22,27.386,59.268,27.188L59.268,27.188z
	 M58.688,37.146c-0.156-0.02-0.104,0.133-0.21,0.156c0.034-0.125,0.196-0.346,0.316-0.367
	C58.771,37.022,58.729,37.069,58.688,37.146z M58.898,36.829c0.039-0.078,0.029-0.121,0.107-0.105
	C59.046,36.743,58.911,36.823,58.898,36.829C58.916,36.794,58.903,36.827,58.898,36.829z M59.163,36.565
	c-0.036,0.1-0.049,0.039-0.054-0.053c0.076,0.023,0.055,0.002,0.105,0.053C59.197,36.565,59.181,36.565,59.163,36.565z
	 M59.057,31.982c-0.084,0.083-0.239,0.266-0.369,0.421c-0.035,0-0.069,0-0.105,0c-0.017,0.055-0.034,0.106-0.052,0.158
	c-0.045,0.033-0.05,0.05-0.106,0.053c0.033-0.118,0.189-0.36,0.292-0.39c0.062-0.019,0.062-0.08,0.078-0.137
	c0.112-0.028,0.181-0.077,0.231-0.18c0.05-0.099,0.305-0.375,0.4-0.348C59.365,31.739,59.196,31.81,59.057,31.982z M59.583,37.462
	c-0.047,0.012-0.262,0.172-0.262,0.078c0-0.049,0.189-0.166,0.262-0.184C59.583,37.392,59.583,37.425,59.583,37.462z M60.479,36.513
	c-0.089-0.014-0.473,0.357-0.473,0.422c0,0.031-0.138,0.1-0.188,0.174c-0.079,0.117-0.117,0.246-0.288,0.193
	c0.056-0.096,0.145-0.314,0.265-0.314c0.078,0,0.103-0.053,0.159-0.105c0-0.035,0-0.072,0-0.105
	c0.084-0.004,0.119-0.039,0.104-0.105c0-0.061,0.193-0.154,0.246-0.229c0.058-0.082,0.117-0.164,0.175-0.246
	c0.034,0,0.072,0,0.106,0c0.036-0.15,0.208-0.334,0.316-0.369C60.864,36.14,60.556,36.231,60.479,36.513z M61.901,31.771
	c-0.109,0.019-0.354,0.464-0.479,0.573c-0.093,0.082-0.195,0.166-0.311,0.217c0,0.039,0,0.078,0,0.117
	c0,0.076-0.101,0.081-0.163,0.112c-0.091,0.046-0.091,0.139-0.153,0.139c-0.052-0.017-0.069,0-0.052,0.054
	c0,0.129-0.052-0.007-0.106,0.053c-0.062,0.068-0.191,0.171-0.263,0.264c-0.075,0.028-0.15-0.053-0.079-0.053
	c0.034,0,0.127-0.092,0.184-0.105c0-0.035,0-0.07,0-0.105c0.068-0.018,0.155-0.044,0.184-0.117c0.049-0.136,0.103-0.154,0.239-0.199
	c0.064-0.059,0.005-0.135,0.146-0.187c0.113-0.042,0.092-0.16,0.21-0.214c0.167-0.078,0.164-0.252,0.314-0.312
	C61.639,31.981,61.87,31.599,61.901,31.771z M62.639,31.192c-0.092-0.023-0.282,0.251-0.367,0.352
	c-0.123,0.143-0.226,0.102-0.317,0.176c0.038-0.152,0.302-0.527,0.476-0.527c0.039,0,0.209-0.23,0.209-0.264
	c0-0.138,0.109,0.021,0.158,0.053C62.744,31.052,62.691,31.122,62.639,31.192z M68.593,28.821c0.001-0.223-0.003-0.471-0.274-0.401
	c-0.255,0.064-0.262,0.282-0.464,0.349c-0.101-0.303-0.499-0.381-0.554-0.053c-0.006,0.044,0.001,0.158-0.054,0.158
	c-0.061,0-0.01,0.111-0.024,0.158c-0.016,0.049-0.053-0.042-0.053,0.092c0,0.094,0.036,0.16-0.051,0.172
	c-0.001,0.212,0.038,0.584,0.261,0.369c0.143-0.147,0.147-0.545,0.158-0.738c0.111,0.066,0.144,0.177,0.24,0.27
	c0.068,0.068,0.064,0.147,0.159,0.105c-0.02,0.002,0.255-0.523,0.305-0.457c0.06,0.08,0.013,0.687-0.019,0.714
	c0.073,0.047,0.255,0.208,0.369,0.106C68.599,29.462,68.728,28.997,68.593,28.821C68.593,28.682,68.669,28.921,68.593,28.821z
	 M66.643,29.032c-0.017-0.07-0.034-0.141-0.053-0.211c0.133-0.013,0.263-0.026,0.396-0.039c0.222-0.021,0.092,0.007,0.134-0.119
	c0.066-0.069,0.029-0.21-0.076-0.21c-0.116,0-0.231,0.001-0.349,0c-0.009-0.001,0.025-0.054-0.024-0.054
	c-0.049,0-0.019,0.054-0.027,0.054c-0.156-0.001-0.393,0.009-0.526,0.104c-0.088,0.047-0.161,0.219-0.105,0.316
	c0.05,0.089,0.205,0.045,0.317,0c-0.011,0.097-0.007,0.598-0.106,0.58c0,0.174,0.084,0.318,0.259,0.224
	c0.154-0.082,0.053-0.314,0.162-0.329C66.656,29.265,66.48,29.062,66.643,29.032z M34.086,27.926c0.279,0,0.459,0.058,0.685,0.054
	c0.011,0-0.023-0.054,0.027-0.054c0.063,0-0.01,0.054,0.05,0.054c0.088,0,0.18,0,0.269,0c0.057,0-0.006,0.052,0.039,0.052
	c0.298,0,0.487,0.052,0.735,0.052c0.163,0,0.116,0.054,0.262,0.054c0.12,0-0.068,0.08,0.141,0.062
	c0.159-0.015,0.166-0.087,0.322-0.011c0-0.018,0-0.034,0-0.052c0.104,0.018,0.209,0.034,0.315,0.052c0.021-0.15,0.26,0,0.264,0
	c0.1,0,0.22-0.106,0.348-0.137c0.198-0.045,0.531-0.035,0.557-0.246c0.013-0.127,0.066-0.232,0.098-0.354
	c0.051-0.207-0.095-0.436-0.053-0.633c0.183-0.123,0.173-0.199,0.21-0.421c-0.005,0.009,0.091-0.105,0.079-0.105
	c0.038,0,0.057-0.319,0.077-0.369c-0.004,0.011,0.218-0.368,0.186-0.368c0.127,0-0.173-0.072-0.206-0.073
	c-0.136-0.005-0.348,0.024-0.398-0.085c-0.069-0.008-0.426,0.165-0.477,0c-0.262,0.018-0.525,0.035-0.79,0.053
	c-0.027-0.149-0.631,0.035-0.631-0.133c0-0.111-0.73,0.08-0.738-0.078c-0.07-0.012-0.258,0.053-0.355,0.053
	c-0.103,0-0.313-0.053-0.33,0.053c-0.068-0.023-0.139-0.041-0.21-0.053c-0.018,0.139-0.116,1.264-0.185,1.264
	c-0.034,0-0.083,0.365,0.027,0.369c-0.064,0.192-0.105,0.451-0.222,0.617c-0.042,0.059-0.133,0.045-0.147,0.067
	C34.009,27.734,33.914,27.893,34.086,27.926z M38.144,25.714c0.14,0.046,0.187,0.041,0.103,0.189
	c-0.033,0.059-0.032,0.231-0.078,0.231C38.112,26.135,38.144,25.782,38.144,25.714z M37.51,27.188
	c0.135-0.031,0.235-0.126,0.37-0.158C37.882,27.028,37.533,27.413,37.51,27.188z M14.963,37.196
	c0.099-0.004,0.056-0.346,0.072-0.457c0.027-0.188,0.001-0.381,0-0.57c0-0.154,0.099-0.326,0.086-0.447c-0.018,0-0.036,0-0.053,0
	c-0.006-0.055,0.054-0.156,0.06-0.215c0.031-0.307-0.051-0.02-0.06-0.102c-0.01-0.115,0-0.237,0-0.354
	c0-0.106-0.052-0.042-0.052-0.182c0-0.032-0.15-0.233-0.158-0.253c-0.036-0.101-0.064-0.421-0.264-0.421
	c-0.103,0-0.167-0.138-0.228-0.211c-0.111-0.134-0.168-0.117-0.333-0.141c-0.119-0.017-0.172-0.066-0.229-0.122
	c-0.039-0.014-0.316,0.093-0.316-0.027c0-0.084-0.82-0.38-0.896-0.395c0.014,0.006-0.316-0.188-0.316-0.133
	c0-0.046-0.421-0.058-0.421-0.104c0,0.059-1.126-0.165-1.186-0.171c-0.119-0.013-0.137-0.033-0.237-0.066
	c0,0-0.269-0.159-0.263-0.158c-0.128-0.022-0.502,0.074-0.526-0.053c-0.053,0.018-0.105,0.035-0.158,0.053
	c-0.02-0.113-0.211,0-0.211-0.078c0-0.053-0.837-0.055-0.948-0.059c-0.128-0.004-0.79,0.055-0.79-0.153
	c0-0.013-0.264-0.152-0.264-0.269c0-0.264,0.343-0.477,0.58-0.6c0.049-0.025,0.043-0.072,0.104-0.084
	c0.128-0.026,0.064-0.072,0.146-0.113c0.072-0.037,0.353-0.061,0.383-0.119c0.276-0.068,0.598-0.098,0.892-0.117
	c0.288-0.02,0.577-0.008,0.865,0.002c0.185,0.006,0.306-0.045,0.392,0.118c0.042,0.081,0.133,0.115,0.169,0.155
	c0.099,0.111-0.126,0.041,0.105,0.158c0.084,0.125,0.151,0.264,0.202,0.406c0.049,0.138,0.006,0.215,0.161,0.234
	c0.146,0.02,0.284,0.033,0.428-0.01c0.02-0.004-0.025-0.052,0.015-0.052c0.078,0,0.157,0,0.237,0c0.102,0,0.312-0.052,0.328,0.052
	c0.476-0.047,0.935-0.052,1.412-0.052c0.154,0,0.823,0.003,0.854,0.104c0.069-0.018,0.14-0.035,0.211-0.053
	c0.019,0.041,0.054,0.061,0.105,0.053c0.013-0.123,0.231-0.027,0.317,0c0-0.018,0-0.035,0-0.053
	c0.157,0.018,0.315,0.035,0.473,0.053c0.018-0.125,0.168-0.006,0.263-0.053c0.09-0.027,0.119-0.118,0.158-0.157
	c0.024-0.294-0.316-0.343-0.316-0.539c0-0.077-0.053-0.013-0.053-0.134c0-0.112-0.042-0.139-0.053-0.17c0-0.039,0-0.078,0-0.117
	c0-0.102-0.04,0.004-0.053-0.041c-0.043-0.175-0.104-0.207-0.131-0.369c-0.018-0.107-0.174-0.316-0.289-0.316
	c-0.057,0-0.265-0.189-0.265-0.264c0-0.177-0.237-0.148-0.316-0.21c-0.128-0.173-0.362-0.368-0.526-0.368
	c-0.068,0.016-0.102-0.02-0.106-0.105c-0.105-0.035-0.21-0.07-0.316-0.105c-0.028-0.009-0.07-0.053-0.177-0.053
	c-0.02,0-0.088-0.037-0.139-0.053c-0.113-0.035,0.317-0.004-0.136-0.074c-0.138-0.021-0.275-0.042-0.411-0.062
	c-0.2-0.031-0.195-0.127-0.414-0.127c-0.119,0-0.254-0.053-0.44-0.053c-0.048,0,0.01-0.053-0.075-0.053c-0.12,0-0.239,0-0.358,0
	c-0.147,0-0.264-0.053-0.47-0.053c-0.232,0-0.477-0.082-0.709-0.107c-0.17-0.019-0.341-0.032-0.513-0.031
	c-0.084,0.001-0.169,0.004-0.253,0.019c-0.11,0.019-0.037,0.062-0.065,0.067c-0.157,0.037-0.292-0.055-0.369-0.052
	c0.021-0.001-0.089,0.052-0.146,0.052c-0.086,0-0.22,0.046-0.223-0.052c-0.032-0.003-0.195,0.149-0.211,0
	c-0.125,0.042-0.136,0.063-0.263,0c0.013,0.071-0.951,0.157-1.152,0.157c-0.069,0-0.16,0.067-0.284,0.085
	c-0.116,0.017-0.18,0.109-0.198,0.021c-0.157,0.018-0.316,0.035-0.474,0.053c-0.059,0.119-0.021,0.105-0.107,0.105
	c-0.153,0-0.306,0-0.458,0c-0.006,0-0.163,0.053-0.251,0.053c-0.059,0-0.006,0.05-0.027,0.053c-0.076,0.01-0.16,0-0.236,0
	c-0.045,0-0.046,0.039-0.067,0.078c-0.034,0.068-0.122-0.01-0.171,0.027c-0.095,0.105-0.19,0.211-0.285,0.315
	c-0.063,0.071-0.126,0.141-0.19,0.211c-0.035,0-0.069,0-0.105,0c-0.126,0.169-0.221,0.231-0.368,0.343
	c-0.109,0.082-0.179,0.216-0.264,0.342c-0.208,0.167-0.421,0.398-0.421,0.633c0,0.141-0.122,0.191-0.158,0.264
	c-0.056,0.223-0.133,0.351-0.185,0.605c-0.005,0.027-0.108,0.29-0.105,0.29c-0.047,0-0.028,0.261-0.044,0.327
	c-0.05,0.195-0.269,1.206-0.035,1.253c-0.017,0.053-0.035,0.104-0.053,0.158c0.113-0.021,0.094,0.243,0.105,0.315
	c0.12,0.035,0.16,0.082,0.216,0.186c0.107,0.202,0.276,0.189,0.39,0.342c0.104,0.137,0.153,0.059,0.237,0.184
	c0.072,0.107,0.099,0.079,0.224,0.079c0.109,0,0.547,0.188,0.514,0.315c0.221-0.008,0.437-0.072,0.658-0.084
	c0.153-0.01,0.312,0.084,0.384,0.084c0.15,0,0.33,0.107,0.474,0.107c0.19,0,0.17,0.105,0.34,0.105c0.021,0,0.093-0.104,0.093-0.027
	c0,0.057,0.215,0.027,0.263,0.027c0.07,0,0.14,0,0.209,0c0.094,0,0.018,0.041,0.055,0.053c0.126,0.031,0.283,0.104,0.408,0.104
	c0.101,0,0.17,0.053,0.199,0.053c0.111,0,0.233,0.053,0.269,0.053c0.359,0,0.814,0.107,1.238,0.146
	c0.305,0.025,0.598-0.029,0.882,0.096c0.235,0.104,0.237,0.186,0.507,0.26c0.159,0.043,0.292,0.008,0.29,0.195
	c-0.001,0.094,0.001,0.221-0.053,0.305c-0.134,0.207-0.38,0.318-0.604,0.361C9.928,37.245,9.8,37.341,9.8,37.329
	c0-0.008-0.186,0.082-0.158,0.078c-0.114,0.016-0.241,0-0.355,0c-0.103,0-0.041,0.055-0.172,0.055c-0.312,0-0.495-0.055-0.763-0.066
	c-0.29-0.014-0.758-0.016-0.87-0.039c-0.112-0.025-0.154-0.105-0.158-0.105c-0.124-0.061-0.245-0.082-0.342-0.211
	c-0.055-0.074-0.185-0.133-0.185-0.211c0-0.102-0.105-0.053-0.105-0.146c0-0.193-0.105-0.27-0.105-0.512
	c0-0.24-0.437-0.246-0.612-0.262c-0.137-0.012-0.587,0.01-0.6,0.129c-0.071-0.018-0.141-0.035-0.211-0.053
	c0.021,0.113-0.244,0.094-0.315,0.105c0-0.018,0-0.035,0-0.053c-0.146-0.025-0.154,0.055-0.316,0c-0.005,0.145-0.528-0.006-0.58,0
	c-0.02,0.07-0.035,0.074-0.052,0c-0.082,0.004-0.194,0.139-0.211,0c-0.142,0.018-0.422,0.021-0.527,0
	c-0.105-0.02-0.145,0.057-0.263,0.027c-0.139-0.035-0.13,0.053-0.264,0.025c-0.01-0.078,0.045-0.072-0.105,0
	c-0.012-0.055-0.235-0.115-0.37-0.053c-0.135,0.062-0.684-0.031-0.684,0.08c0,0.027-0.186,0.045-0.211,0.078
	c-0.007,0.062-0.085,0.369,0.027,0.369c0.035-0.01,0.043,0.01,0.026,0.053c0,0.174,0.162-0.004,0.053,0.211
	c0.17,0.086,0.17,0.385,0.211,0.527c0.009,0.033,0.052-0.002,0.052,0.117c0,0.041,0.056,0.184,0.105,0.25
	c0.05,0.068,0.088,0.18,0.105,0.266c0.103,0.016,0.147,0.078,0.132,0.184c0.08,0.404,0.042,0.025,0.079,0.131
	c0.073,0.293,0.29,0.488,0.527,0.686c0.081,0.162,0.118,0.047,0.21,0.186c0.1,0.148,0.358,0.146,0.527,0.184
	c0.211,0.047,0.422,0.092,0.632,0.141c0.111,0.023,0.304,0.121,0.357,0.121c0.067,0,0.591,0.16,0.591,0.186
	c0,0.068,0.58,0.258,0.58,0.264c0,0.117,1.036,0.133,1.209,0.133c0.209,0,1.35-0.109,1.372,0.104
	c0.19-0.025,0.384-0.033,0.576-0.033c0.192,0.002,0.366,0.088,0.478,0.033c0,0.02,0,0.035,0,0.053
	c0.051,0.006,0.086-0.012,0.105-0.053c0.071,0.02,0.14,0.035,0.211,0.053c0.011-0.057-0.01-0.047,0.053-0.053
	c0.019,0.041,0.055,0.059,0.105,0.053c0.068-0.012-0.016-0.062,0.053-0.053c0,0.02,0,0.035,0,0.053
	c0.316-0.053,0.867-0.135,0.948-0.156c0.082-0.025,0.097-0.104,0.106-0.107c0.406-0.051,0.478-0.143,0.842-0.262
	c0.032-0.01-0.041-0.053,0.028-0.053c0.069,0,0.107,0.021,0.208,0c0.101-0.023,0.239-0.131,0.239-0.133
	c0-0.066,0.208-0.012,0.263-0.027c-0.004,0.002,0.032-0.062,0.079-0.078c0.128-0.043,0.07,0.059,0.184,0.027
	c0.015-0.082,0.474-0.117,0.474-0.186c0-0.055,0.212-0.078,0.284-0.078c0.028,0,0.164-0.133,0.243-0.158
	c0.061-0.049,0.163-0.146,0.262-0.207c0.113-0.068,0.218-0.152,0.278-0.27c0.046-0.094,0.145-0.094,0.145-0.156
	c0-0.113,0.263-0.197,0.263-0.381c0-0.113,0.158-0.078,0.158-0.199c-0.015-0.066,0.02-0.1,0.106-0.104
	c0.018-0.088,0.035-0.178,0.052-0.264C14.904,37.519,14.997,37.313,14.963,37.196z M15.016,31.72
	c0.087-0.024,0.148-0.069,0.211-0.105c-0.051,0.15-0.06,0.16-0.211,0.209C15.016,31.789,15.016,31.753,15.016,31.72z M12.698,31.455
	c-0.011,0.064,0.032,0.112-0.053,0.105c0.027-0.103,0.065-0.185,0.159-0.21C12.781,31.398,12.746,31.434,12.698,31.455z
	 M13.436,30.771c0.116-0.163,0.199-0.311,0.401-0.425c0.13-0.073,0.242-0.418,0.376-0.418c0.159,0,0.129,0.014,0.041,0.123
	c-0.04,0.058-0.079,0.114-0.116,0.173c-0.102,0.139-0.084,0.01-0.176,0.072c-0.093,0.14-0.184,0.133-0.244,0.254
	c-0.045,0.092-0.328,0.304-0.389,0.326C13.36,30.835,13.395,30.8,13.436,30.771C13.531,30.638,13.408,30.81,13.436,30.771z
	 M13.277,30.981c-0.031,0.02-0.067,0.024-0.105,0.053c0-0.035,0-0.07,0-0.105C13.249,30.952,13.227,30.932,13.277,30.981z
	 M11.275,29.19c0.07-0.035,0.141-0.07,0.211-0.105C11.502,29.206,11.299,29.313,11.275,29.19z M11.275,30.771
	c0.101,0.031,0.155,0.01,0.184-0.079c0.036-0.105,0.237-0.106,0.237-0.21c0,0.019,0.357-0.29,0.369-0.29
	c0.115,0,0.087-0.159,0.184-0.159c-0.017,0,0.162-0.202,0.185-0.236c0.081-0.121,0.149-0.069,0.263-0.202
	c0.072-0.084,0.384-0.437,0.495-0.163c0.067,0.167-0.335,0.4-0.449,0.51c-0.048,0.047-0.121,0.172-0.151,0.199
	c-0.035,0-0.07,0-0.105,0c-0.046,0.068-0.068,0.156-0.157,0.156c-0.232,0-0.373,0.344-0.523,0.393
	c-0.33,0.11-0.505,0.472-0.847,0.557C10.894,31.03,11.223,30.997,11.275,30.771z M10.906,29.559c0.051-0.08,0.124-0.144,0.212-0.157
	c-0.072,0.095-0.124,0.244-0.265,0.211C10.892,29.562,10.856,29.597,10.906,29.559C10.957,29.479,10.847,29.604,10.906,29.559z
	 M10.485,29.875c0.018,0,0.035,0,0.052,0c0.043,0.021-0.093,0.099-0.105,0.105C10.45,29.946,10.468,29.911,10.485,29.875z
	 M10.117,30.296c-0.105-0.031-0.045,0.008-0.105-0.052C10.116,30.276,10.057,30.237,10.117,30.296z M3.636,32.614
	c-0.013,0.114-0.142,0.057-0.184,0.185c-0.047,0.142-0.189,0.123-0.254,0.247c-0.041,0.075-0.284,0.336-0.353,0.358
	c0.006-0.239,0.023-0.306,0.2-0.427c0.021-0.014,0.063-0.1,0.064-0.1c0.122-0.03,0.19-0.023,0.263-0.131
	c0.071-0.105,0.152-0.072,0.242-0.18c0.072-0.087,0.125-0.197,0.233-0.216C3.811,32.483,3.734,32.53,3.636,32.614z M5.164,32.035
	c-0.078,0.038-0.107-0.009-0.157-0.053C5.087,31.959,5.157,31.961,5.164,32.035z M5.585,31.72c-0.063,0.055-0.196,0.177-0.263,0.158
	c0.038-0.14,0.243-0.339,0.368-0.369C5.656,31.578,5.621,31.649,5.585,31.72C5.466,31.821,5.621,31.649,5.585,31.72z M7.167,30.507
	c-0.127,0.116-0.272,0.223-0.432,0.287c-0.203,0.08,0.003,0.062-0.096,0.135c-0.096,0.024-0.167,0.082-0.263,0.105
	c0,0.035,0,0.07,0,0.105c-0.089,0.021-0.175,0.073-0.251,0.123C6,31.344,5.896,31.526,5.744,31.509
	c0.065-0.087,0.11-0.179,0.201-0.249c0.065-0.05,0.083-0.12,0.168-0.12c0.068,0,0.098-0.104,0.158-0.158
	c0.024-0.031,0.196-0.211,0.263-0.211c0.095,0,0.164-0.075,0.229-0.139c0.054-0.054,0.101-0.113,0.14-0.178c0.035,0,0.071,0,0.105,0
	c0.026-0.088,0.079-0.141,0.148-0.195c0.046-0.032,0.085-0.072,0.115-0.119c0.035,0,0.07,0,0.105,0
	c0.089-0.077-0.08-0.047,0.098-0.146c0.1-0.056,0.152-0.141,0.271-0.172c0.067-0.058-0.059-0.071,0.064-0.13
	c0.113-0.055,0.214-0.137,0.31-0.217c0.083-0.068,0.312-0.381,0.391-0.396c0.1-0.02,0.484-0.203,0.499-0.047
	c-0.124,0.093-0.313,0.205-0.369,0.316c-0.104,0.035-0.147,0.022-0.184,0.131c-0.03,0.09-0.132,0.068-0.132,0.105
	c0-0.002-0.492,0.416-0.537,0.427c-0.041,0.011-0.054-0.013-0.07,0.036c-0.046,0.145-0.158,0.098-0.27,0.191
	c-0.04,0.033-0.124,0.08-0.124,0.137C7.324,30.374,7.191,30.458,7.167,30.507C7.043,30.62,7.184,30.472,7.167,30.507z M2.636,36.829
	c-0.149-0.027-0.395,0.436-0.526,0.551c-0.029,0.027-0.121,0.135-0.132,0.135c-0.162,0,0.109-0.25,0.131-0.264
	c0.116-0.129,0.193-0.299,0.316-0.422c0.035,0,0.07,0,0.105,0c0.025-0.1,0.084-0.188,0.158-0.256
	c0.096-0.088,0.151-0.172,0.263-0.166C2.859,36.563,2.683,36.642,2.636,36.829z M3.426,38.146c-0.018,0-0.035,0-0.053,0
	c0.015-0.201,0.161-0.291,0.21-0.473c0.138-0.039,0.136-0.188,0.265-0.158C3.787,37.778,3.554,37.921,3.426,38.146z M3.953,37.356
	C3.915,37.407,3.951,37.37,3.9,37.407c0-0.033,0-0.07,0-0.105c0.076,0.023,0.055,0.004,0.105,0.055
	C3.988,37.356,3.971,37.356,3.953,37.356z M6.218,39.886c-0.038,0.049-0.001,0.012-0.052,0.051
	c-0.109-0.156,0.174-0.311,0.264-0.475C6.541,39.61,6.341,39.823,6.218,39.886C6.173,39.944,6.352,39.815,6.218,39.886z
	 M8.009,39.886C7.905,39.839,8.004,39.687,8.009,39.886L8.009,39.886z M8.22,39.569c-0.029,0.098-0.041,0.182-0.158,0.158
	c0.05-0.096,0.084-0.25,0.211-0.213C8.234,39.565,8.271,39.53,8.22,39.569C8.188,39.673,8.28,39.524,8.22,39.569z M8.325,39.462
	c-0.017,0-0.035,0-0.052,0c0.048-0.146,0.185-0.258,0.315-0.314C8.5,39.253,8.413,39.358,8.325,39.462z M8.853,38.937
	c-0.064,0.02-0.1,0.037-0.158,0.053c0.041-0.07,0.086-0.117,0.158-0.158C8.853,38.866,8.853,38.901,8.853,38.937z M10.064,37.62
	c-0.035,0.023-0.407,0.271-0.377,0.301c0.02,0.008,0.04,0.014,0.06,0.014c-0.01,0.098-0.083,0.082-0.157,0.105
	c0,0.035,0,0.07,0,0.105c-0.035,0-0.07,0-0.105,0c-0.149,0.178-0.37,0.566-0.58,0.633c0.047-0.084,0.125-0.17,0.158-0.211
	c0.072-0.086,0.162-0.156,0.217-0.256c0.091-0.158,0.109-0.061,0.188-0.213c0.038-0.074,0.032-0.164,0.123-0.164
	c0.083,0,0.132-0.162,0.201-0.229C9.841,37.655,10.045,37.44,10.064,37.62z M9.643,34.827c0.104,0.031,0.045-0.008,0.104,0.053
	C9.643,34.849,9.702,34.888,9.643,34.827z M10.485,34.089c-0.14-0.039-0.261,0.276-0.385,0.364c-0.034,0.025-0.142,0.18-0.142,0.07
	c0-0.269,0.579-0.39,0.579-0.709c0-0.032,0.273-0.256,0.316-0.356c0.046-0.064,0.106,0.081,0.106-0.054
	c0-0.082,0.038-0.052,0.117-0.052c0.145,0-0.162,0.206-0.193,0.235C10.732,33.733,10.584,33.901,10.485,34.089z M11.38,36.249
	c-0.142-0.039-0.38,0.426-0.527,0.475c0.005-0.16,0.06-0.277,0.142-0.381c0.079-0.098,0.124-0.045,0.175-0.197
	C11.276,36.155,11.354,36.157,11.38,36.249z M12.224,35.09c-0.018,0-0.036,0-0.053,0c0.026-0.103,0.066-0.184,0.159-0.21
	C12.307,34.967,12.264,35.015,12.224,35.09z M13.225,34.142c-0.07-0.018-0.312,0.23-0.41,0.318c-0.123,0.111-0.288,0.387-0.433,0.42
	c0.073-0.269,0.264-0.318,0.386-0.562c0.065-0.132,0.087-0.188,0.224-0.259c0.076-0.037,0.106-0.1,0.127-0.181
	c0.086,0.021,0.134,0.064,0.21,0.105C13.295,34.036,13.259,34.089,13.225,34.142z M13.699,38.673
	C13.594,38.628,13.693,38.476,13.699,38.673L13.699,38.673z M13.751,38.515c0.039-0.078,0.029-0.121,0.105-0.105
	C13.898,38.429,13.764,38.509,13.751,38.515C13.769,38.479,13.756,38.513,13.751,38.515z M14.753,35.195
	c-0.141-0.105-0.243-0.235,0-0.315C14.753,34.985,14.753,35.09,14.753,35.195z M35.667,38.304c0.097-0.016,0.105-0.375,0.105-0.498
	c0-0.27,0.158-0.623,0.158-0.883c0-0.016,0.035-0.148,0.053-0.199c0.011-0.033,0.052,0.041,0.052-0.027c0-0.076-0.009-0.16,0-0.236
	c-0.004,0.027,0.086-0.211,0.079-0.211s0.079-0.193,0.079-0.186c0-0.07,0-0.139,0-0.209c0-0.068,0.041,0.006,0.053-0.027
	c0.038-0.107,0.011-0.137,0.053-0.262c0.009-0.027,0.053,0.031,0.053-0.02c0-0.094,0-0.186,0-0.278c0-0.037,0.029-0.19,0.053-0.229
	c0.089-0.148,0.161-0.281,0.193-0.543c0.023-0.195,0.195-0.418,0.122-0.564c0.121-0.012,0.261-0.795,0.211-0.895
	c0.013-0.012,0.079-0.106,0.08-0.106c-0.011,0,0.083-0.171,0.078-0.157c0-0.039,0-0.078,0-0.117c0-0.104,0.036,0.006,0.053-0.041
	c0.013-0.036,0.053-0.189,0.053-0.182c0-0.245,0.054-0.299,0.054-0.527c0-0.029,0.052-0.106,0.052-0.206
	c0-0.042,0.053-0.071,0.053-0.179c0-0.07,0.041-0.434,0.078-0.434c0.088,0,0.084-0.422,0.16-0.422c0.007,0,0.13-0.41,0.13-0.42
	c0-0.062,0.059-0.078,0.069-0.187c0.015-0.112,0.025-0.228,0.036-0.343c-0.108-0.021,0.054-0.144,0.054-0.25
	c0-0.182,0.034-0.117,0.078-0.249c0.068-0.208-0.251-0.272-0.407-0.259c-0.206,0.016-0.406,0.084-0.6,0.152
	c-0.078,0.029-0.108,0.027-0.189,0.027c-0.087,0-0.013,0.049-0.042,0.053c-0.223,0.031-0.463-0.039-0.685,0
	c-0.031,0.006,0.063,0.051-0.093,0.071c-0.108,0.015-0.218,0.011-0.328,0c-0.16-0.015-0.33-0.071-0.49-0.071
	c-0.132,0-0.265,0-0.397,0c-0.03,0-0.085,0.008-0.115,0c-0.095-0.191-0.064-0.041-0.21-0.105c0-0.009,0-0.018,0-0.026
	c0.008-0.058-0.034-0.077-0.125-0.054c-0.067-0.007-0.185,0.022-0.244-0.025c-0.158,0.02-0.298,0.1-0.369,0.211
	c-0.026,0.04-0.053-0.051-0.053,0.033c0,0.049,0.016,0.131,0,0.178c-0.007,0.02-0.105,0.104-0.105,0.146
	c0,0.143-0.06,0.205-0.073,0.391c-0.012,0.137-0.022,0.273-0.032,0.41c-0.008,0.035-0.04-0.064-0.079,0.133
	c-0.007,0.033-0.088,0.237-0.106,0.237c0,0-0.131,0.448-0.131,0.462c0,0.107-0.02,0.128-0.054,0.223
	c-0.014,0.037-0.052-0.051-0.052,0.033c0,0.055,0.011,0.123,0,0.178c-0.016,0.083-0.024-0.26-0.07,0.157
	c-0.005,0.048-0.004,0.316-0.062,0.316c-0.025,0-0.079,0.15-0.079,0.198c0,0.079-0.185,0.961-0.184,0.961
	c-0.07,0-0.061,0.422-0.105,0.422c0.01,0-0.144,0.451-0.149,0.491c-0.013,0.091-0.067,0.396-0.14,0.403
	c-0.007,0.051,0.011,0.086,0.053,0.105c-0.019,0.07-0.037,0.141-0.053,0.211c0.054,0.031,0.083,0.026,0,0.053
	c0.062,0.05,0,0.453,0,0.57c0,0.152-0.105,0.275-0.105,0.418c0,0.193-0.054,0.328-0.054,0.574c0,0.021-0.124,0.332-0.158,0.334
	c0.044,0.135,0.094,0.137-0.053,0.211c-0.013,0.156-0.026,0.314-0.04,0.475c-0.007,0.084-0.032,0.229-0.066,0.316
	c-0.009,0-0.018,0-0.025,0c-0.064-0.01-0.079,0.037-0.045,0.139c-0.005,0.047-0.003,0.281-0.061,0.281
	c-0.057,0-0.026,0.238-0.026,0.289c0,0.176-0.105,0.24-0.105,0.408c0,0.072-0.087,0.318-0.105,0.463
	c-0.005,0.016-0.109,0.195-0.159,0.209c0.018,0.053,0.036,0.107,0.053,0.16c-0.19,0.045,0.252,0.184,0.316,0.209
	c0.017-0.172,0.313-0.029,0.421-0.053c0.036-0.035,0.07-0.07,0.106-0.104c0.053,0.016,0.105,0.033,0.158,0.053
	c0.011-0.105,0.217-0.053,0.315-0.053c0.123,0,0.378-0.074,0.474-0.053c0.015,0.164,0.333-0.004,0.37,0
	c0.009,0.111,0.419,0.053,0.53,0.053c0.115,0,0.11,0.008,0.184,0.047c0.082,0.039,0.08-0.021,0.143-0.043
	c0.144-0.049,0.065,0.07,0.197,0.049c0-0.02,0-0.037,0-0.053c0.157,0.016,0.315,0.033,0.473,0.053
	c-0.02-0.111,0.222-0.074,0.29-0.08c0.097-0.01,0.193-0.018,0.291-0.025c0.01-0.049,0.021-0.211,0.079-0.211
	c0.057,0,0.025-0.33,0.025-0.383C35.614,38.843,35.667,38.591,35.667,38.304z M37.248,29.875c0.302-0.085,0.074,0.242-0.106,0.21
	C37.183,30.008,37.227,29.964,37.248,29.875z M32.243,39.515c-0.078-0.021-0.055-0.002-0.105-0.053
	c0.03-0.018,0.066-0.021,0.105-0.051C32.243,39.446,32.243,39.481,32.243,39.515z M32.401,36.146c-0.018,0-0.036,0-0.053,0
	c0.033-0.281,0.194-0.217,0.315-0.318C32.577,35.935,32.488,36.038,32.401,36.146z M36.035,33.353c-0.034,0-0.07,0-0.105,0
	c0.081-0.243,0.397-0.328,0.576-0.534c0.041-0.047,0.078-0.097,0.109-0.151c0.035,0,0.07,0,0.104,0
	c0.006-0.004,0.032-0.088,0.054-0.105C36.672,32.937,36.222,33.038,36.035,33.353z M36.246,29.875
	c0.111,0.03,0.266-0.203,0.356-0.288c0.109-0.105,0.273-0.096,0.065,0.043c-0.228,0.151-0.315,0.41-0.58,0.455
	C36.14,30.017,36.193,29.946,36.246,29.875z M35.983,30.085c0.018,0,0.034,0,0.052,0c-0.069,0.094-0.11,0.18-0.21,0.211
	C35.877,30.227,35.93,30.155,35.983,30.085z M35.614,30.454c0.039-0.05,0.001-0.014,0.054-0.052c0.035,0.122-0.166,0.195-0.264,0.21
	C35.456,30.531,35.527,30.493,35.614,30.454C35.659,30.395,35.515,30.498,35.614,30.454z M33.823,38.093
	c-0.077-0.023-0.055-0.002-0.104-0.053c0.03-0.02,0.066-0.023,0.104-0.051C33.823,38.022,33.823,38.058,33.823,38.093z
	 M34.244,37.673c-0.178-0.035-0.177,0.281-0.368,0.262c0.078-0.102,0.068-0.174,0.21-0.211c0.016-0.053,0.014-0.117,0.078-0.137
	c0.146-0.043,0.021-0.094,0.166-0.152c0.072-0.027,0.123-0.08,0.152-0.15c0.048-0.117,0.17-0.152,0.292-0.207
	c0.125-0.061,0.102-0.184,0.261-0.195C34.841,37.212,34.437,37.341,34.244,37.673z M35.35,37.515
	c-0.068,0.066-0.209,0.174-0.316,0.299c-0.188,0.217-0.093,0.025-0.21,0.121c-0.052,0.08-0.069,0.145-0.157,0.158
	c0.039-0.119,0.399-0.525,0.526-0.525c0.184,0,0.087-0.254,0.263-0.211C35.428,37.456,35.419,37.45,35.35,37.515z M35.193,31.666
	c-0.073,0.146-0.169,0.146-0.278,0.249c-0.047,0.048-0.078,0.105-0.091,0.173c-0.079,0.011-0.152,0.035-0.222,0.073
	c-0.141,0.074-0.262,0.187-0.356,0.314c-0.089,0.124-0.126,0.039-0.187,0.169c-0.014,0.032-0.063,0.109-0.079,0.128
	c-0.035,0-0.07,0-0.105,0c-0.053,0.087-0.105,0.176-0.158,0.264c-0.036,0-0.071,0-0.106,0c0,0.035,0,0.07,0,0.105
	c-0.12,0.033-0.126,0.037-0.158,0.158c-0.03-0.009-0.059-0.02-0.087-0.033c-0.022-0.04,0.442-0.494,0.456-0.494
	c0.129,0-0.024-0.105,0.106-0.105c0.162,0,0.196-0.315,0.342-0.315c-0.014,0,0.1-0.128,0.135-0.146
	c0.088-0.046,0.14-0.17,0.207-0.17c0.066,0,0.118-0.073,0.158-0.105c0.074-0.149,0.256-0.218,0.37-0.369
	c0.024-0.019,0.092-0.044,0.106-0.052c0.035,0,0.069,0,0.104,0c0.047-0.07,0.069-0.158,0.159-0.158c0.078,0,0.037-0.045,0.106-0.098
	c0.031-0.029,0.048-0.068,0.052-0.113c0.102-0.023,0.193-0.068,0.276-0.134c0.12-0.095,0.167-0.228,0.299-0.298
	c0.096-0.051,0.296-0.254,0.372-0.254c0.053,0.018,0.07,0,0.053-0.052c0-0.099,0.111-0.076,0.187-0.122
	c0.099-0.058,0.133-0.175,0.234-0.195c-0.141,0.159-0.28,0.316-0.421,0.475c-0.036,0-0.07,0-0.105,0c0,0.035,0,0.071,0,0.105
	c-0.166,0.018-0.271,0.119-0.38,0.195c-0.022,0.036-0.037,0.076-0.043,0.121c-0.033,0-0.069,0-0.104,0c0,0.035,0,0.07,0,0.105
	c-0.062,0.018-0.119,0.045-0.17,0.084c-0.076,0.055-0.251,0.098-0.251,0.18C35.614,31.427,35.276,31.588,35.193,31.666
	C35.174,31.701,35.3,31.565,35.193,31.666z M35.614,33.562c0.109-0.035,0.178-0.027,0.159-0.157
	c0.077,0.023,0.054,0.003,0.104,0.054C35.772,33.519,35.607,33.812,35.614,33.562z"/>
</svg>
